<svg width="147" height="20" viewBox="0 0 147 20" fill="none" xmlns="http://www.w3.org/2000/svg">
<path d="M35.0455 16H31.2784V4.36364H35.1648C36.3049 4.36364 37.2841 4.59659 38.1023 5.0625C38.9205 5.52462 39.5473 6.18939 39.983 7.05682C40.4223 7.92045 40.642 8.95644 40.642 10.1648C40.642 11.3769 40.4205 12.4186 39.9773 13.2898C39.5379 14.161 38.9015 14.8314 38.0682 15.3011C37.2348 15.767 36.2273 16 35.0455 16ZM33.0341 14.4659H34.9489C35.8352 14.4659 36.572 14.2992 37.1591 13.9659C37.7462 13.6288 38.1856 13.142 38.4773 12.5057C38.7689 11.8655 38.9148 11.0852 38.9148 10.1648C38.9148 9.25189 38.7689 8.47727 38.4773 7.84091C38.1894 7.20455 37.7595 6.72159 37.1875 6.39205C36.6155 6.0625 35.9053 5.89773 35.0568 5.89773H33.0341V14.4659ZM45.2287 16.1932C44.6757 16.1932 44.1757 16.0909 43.7287 15.8864C43.2817 15.678 42.9276 15.3769 42.6662 14.983C42.4086 14.589 42.2798 14.1061 42.2798 13.5341C42.2798 13.0417 42.3745 12.6364 42.5639 12.3182C42.7533 12 43.009 11.7481 43.331 11.5625C43.6529 11.3769 44.0128 11.2367 44.4105 11.142C44.8082 11.0473 45.2135 10.9754 45.6264 10.9261C46.1491 10.8655 46.5734 10.8163 46.8991 10.7784C47.2249 10.7367 47.4616 10.6705 47.6094 10.5795C47.7571 10.4886 47.831 10.3409 47.831 10.1364V10.0966C47.831 9.60038 47.6908 9.21591 47.4105 8.94318C47.134 8.67045 46.7211 8.53409 46.1719 8.53409C45.5999 8.53409 45.1491 8.66098 44.8196 8.91477C44.4938 9.16477 44.2685 9.44318 44.1435 9.75L42.5469 9.38636C42.7363 8.85606 43.0128 8.42803 43.3764 8.10227C43.7438 7.77273 44.1662 7.53409 44.6435 7.38636C45.1207 7.23485 45.6226 7.15909 46.1491 7.15909C46.4976 7.15909 46.867 7.20076 47.2571 7.28409C47.651 7.36364 48.0185 7.51136 48.3594 7.72727C48.7041 7.94318 48.9863 8.25189 49.206 8.65341C49.4257 9.05114 49.5355 9.56818 49.5355 10.2045V16H47.8764V14.8068H47.8082C47.6984 15.0265 47.5336 15.2424 47.3139 15.4545C47.0942 15.6667 46.812 15.8428 46.4673 15.983C46.1226 16.1231 45.7098 16.1932 45.2287 16.1932ZM45.598 14.8295C46.0677 14.8295 46.4692 14.7367 46.8026 14.5511C47.1397 14.3655 47.3954 14.1231 47.5696 13.8239C47.7476 13.5208 47.8366 13.197 47.8366 12.8523V11.7273C47.776 11.7879 47.6586 11.8447 47.4844 11.8977C47.3139 11.947 47.1188 11.9905 46.8991 12.0284C46.6795 12.0625 46.4654 12.0947 46.2571 12.125C46.0488 12.1515 45.8745 12.1742 45.7344 12.1932C45.4048 12.2348 45.1037 12.3049 44.831 12.4034C44.562 12.5019 44.3461 12.6439 44.1832 12.8295C44.0241 13.0114 43.9446 13.2538 43.9446 13.5568C43.9446 13.9773 44.0999 14.2955 44.4105 14.5114C44.7211 14.7235 45.117 14.8295 45.598 14.8295ZM58.3381 9.40341L56.7983 9.67614C56.7339 9.47917 56.6316 9.29167 56.4915 9.11364C56.3551 8.93561 56.1695 8.78977 55.9347 8.67614C55.6998 8.5625 55.4063 8.50568 55.054 8.50568C54.5729 8.50568 54.1714 8.61364 53.8494 8.82955C53.5275 9.04167 53.3665 9.31629 53.3665 9.65341C53.3665 9.94508 53.4744 10.1799 53.6903 10.358C53.9063 10.536 54.2547 10.6818 54.7358 10.7955L56.1222 11.1136C56.9252 11.2992 57.5237 11.5852 57.9176 11.9716C58.3116 12.358 58.5085 12.8598 58.5085 13.4773C58.5085 14 58.357 14.4659 58.054 14.875C57.7547 15.2803 57.3362 15.5985 56.7983 15.8295C56.2642 16.0606 55.6449 16.1761 54.9403 16.1761C53.9631 16.1761 53.1657 15.9678 52.5483 15.5511C51.9309 15.1307 51.5521 14.5341 51.4119 13.7614L53.054 13.5114C53.1563 13.9394 53.3665 14.2633 53.6847 14.483C54.0028 14.6989 54.4176 14.8068 54.929 14.8068C55.4858 14.8068 55.9309 14.6913 56.2642 14.4602C56.5975 14.2254 56.7642 13.9394 56.7642 13.6023C56.7642 13.3295 56.6619 13.1004 56.4574 12.9148C56.2566 12.7292 55.9479 12.589 55.5312 12.4943L54.054 12.1705C53.2396 11.9848 52.6373 11.6894 52.2472 11.2841C51.8608 10.8788 51.6676 10.3655 51.6676 9.74432C51.6676 9.22917 51.8116 8.77841 52.0994 8.39205C52.3873 8.00568 52.785 7.70455 53.2926 7.48864C53.8002 7.26894 54.3816 7.15909 55.0369 7.15909C55.9801 7.15909 56.7225 7.36364 57.2642 7.77273C57.8059 8.17803 58.1638 8.72159 58.3381 9.40341ZM62.0753 10.8182V16H60.3764V4.36364H62.0526V8.69318H62.1605C62.3651 8.22348 62.6776 7.85038 63.098 7.57386C63.5185 7.29735 64.0677 7.15909 64.7457 7.15909C65.3442 7.15909 65.867 7.2822 66.3139 7.52841C66.7647 7.77462 67.1132 8.14205 67.3594 8.63068C67.6094 9.11553 67.7344 9.72159 67.7344 10.4489V16H66.0355V10.6534C66.0355 10.0133 65.8707 9.51705 65.5412 9.16477C65.2116 8.80871 64.7533 8.63068 64.1662 8.63068C63.7647 8.63068 63.4048 8.71591 63.0866 8.88636C62.7723 9.05682 62.5241 9.30682 62.3423 9.63636C62.1643 9.96212 62.0753 10.3561 62.0753 10.8182ZM70.1378 16V4.36364H71.8366V8.6875H71.9389C72.0374 8.50568 72.1795 8.29545 72.3651 8.05682C72.5507 7.81818 72.8082 7.60985 73.1378 7.43182C73.4673 7.25 73.9029 7.15909 74.4446 7.15909C75.1491 7.15909 75.7779 7.33712 76.331 7.69318C76.884 8.04924 77.3177 8.5625 77.6321 9.23295C77.9503 9.90341 78.1094 10.7102 78.1094 11.6534C78.1094 12.5966 77.9522 13.4053 77.6378 14.0795C77.3234 14.75 76.8916 15.267 76.3423 15.6307C75.7931 15.9905 75.1662 16.1705 74.4616 16.1705C73.9313 16.1705 73.4976 16.0814 73.1605 15.9034C72.8272 15.7254 72.5658 15.517 72.3764 15.2784C72.187 15.0398 72.0412 14.8277 71.9389 14.642H71.7969V16H70.1378ZM71.8026 11.6364C71.8026 12.25 71.8916 12.7879 72.0696 13.25C72.2476 13.7121 72.5052 14.0739 72.8423 14.3352C73.1795 14.5928 73.5923 14.7216 74.081 14.7216C74.5885 14.7216 75.0128 14.5871 75.3537 14.3182C75.6946 14.0455 75.9522 13.6761 76.1264 13.2102C76.3045 12.7443 76.3935 12.2197 76.3935 11.6364C76.3935 11.0606 76.3063 10.5436 76.1321 10.0852C75.9616 9.62689 75.7041 9.26515 75.3594 9C75.0185 8.73485 74.5923 8.60227 74.081 8.60227C73.5885 8.60227 73.1719 8.72917 72.831 8.98295C72.4938 9.23674 72.2382 9.59091 72.0639 10.0455C71.8897 10.5 71.8026 11.0303 71.8026 11.6364ZM83.6932 16.1761C82.875 16.1761 82.161 15.9886 81.5511 15.6136C80.9413 15.2386 80.4678 14.714 80.1307 14.0398C79.7936 13.3655 79.625 12.5777 79.625 11.6761C79.625 10.7708 79.7936 9.97917 80.1307 9.30114C80.4678 8.62311 80.9413 8.09659 81.5511 7.72159C82.161 7.34659 82.875 7.15909 83.6932 7.15909C84.5114 7.15909 85.2254 7.34659 85.8352 7.72159C86.4451 8.09659 86.9186 8.62311 87.2557 9.30114C87.5928 9.97917 87.7614 10.7708 87.7614 11.6761C87.7614 12.5777 87.5928 13.3655 87.2557 14.0398C86.9186 14.714 86.4451 15.2386 85.8352 15.6136C85.2254 15.9886 84.5114 16.1761 83.6932 16.1761ZM83.6989 14.75C84.2292 14.75 84.6686 14.6098 85.017 14.3295C85.3655 14.0492 85.6231 13.6761 85.7898 13.2102C85.9602 12.7443 86.0455 12.2311 86.0455 11.6705C86.0455 11.1136 85.9602 10.6023 85.7898 10.1364C85.6231 9.66667 85.3655 9.28977 85.017 9.00568C84.6686 8.72159 84.2292 8.57955 83.6989 8.57955C83.1648 8.57955 82.7216 8.72159 82.3693 9.00568C82.0208 9.28977 81.7614 9.66667 81.5909 10.1364C81.4242 10.6023 81.3409 11.1136 81.3409 11.6705C81.3409 12.2311 81.4242 12.7443 81.5909 13.2102C81.7614 13.6761 82.0208 14.0492 82.3693 14.3295C82.7216 14.6098 83.1648 14.75 83.6989 14.75ZM92.1974 16.1932C91.6444 16.1932 91.1444 16.0909 90.6974 15.8864C90.2505 15.678 89.8963 15.3769 89.6349 14.983C89.3774 14.589 89.2486 14.1061 89.2486 13.5341C89.2486 13.0417 89.3433 12.6364 89.5327 12.3182C89.7221 12 89.9777 11.7481 90.2997 11.5625C90.6217 11.3769 90.9815 11.2367 91.3793 11.142C91.777 11.0473 92.1823 10.9754 92.5952 10.9261C93.1179 10.8655 93.5421 10.8163 93.8679 10.7784C94.1937 10.7367 94.4304 10.6705 94.5781 10.5795C94.7259 10.4886 94.7997 10.3409 94.7997 10.1364V10.0966C94.7997 9.60038 94.6596 9.21591 94.3793 8.94318C94.1027 8.67045 93.6899 8.53409 93.1406 8.53409C92.5687 8.53409 92.1179 8.66098 91.7884 8.91477C91.4626 9.16477 91.2372 9.44318 91.1122 9.75L89.5156 9.38636C89.705 8.85606 89.9815 8.42803 90.3452 8.10227C90.7126 7.77273 91.1349 7.53409 91.6122 7.38636C92.0895 7.23485 92.5914 7.15909 93.1179 7.15909C93.4664 7.15909 93.8357 7.20076 94.2259 7.28409C94.6198 7.36364 94.9872 7.51136 95.3281 7.72727C95.6728 7.94318 95.955 8.25189 96.1747 8.65341C96.3944 9.05114 96.5043 9.56818 96.5043 10.2045V16H94.8452V14.8068H94.777C94.6671 15.0265 94.5024 15.2424 94.2827 15.4545C94.063 15.6667 93.7808 15.8428 93.4361 15.983C93.0914 16.1231 92.6785 16.1932 92.1974 16.1932ZM92.5668 14.8295C93.0365 14.8295 93.438 14.7367 93.7713 14.5511C94.1084 14.3655 94.3641 14.1231 94.5384 13.8239C94.7164 13.5208 94.8054 13.197 94.8054 12.8523V11.7273C94.7448 11.7879 94.6274 11.8447 94.4531 11.8977C94.2827 11.947 94.0876 11.9905 93.8679 12.0284C93.6482 12.0625 93.4342 12.0947 93.2259 12.125C93.0175 12.1515 92.8433 12.1742 92.7031 12.1932C92.3736 12.2348 92.0724 12.3049 91.7997 12.4034C91.5308 12.5019 91.3149 12.6439 91.152 12.8295C90.9929 13.0114 90.9134 13.2538 90.9134 13.5568C90.9134 13.9773 91.0687 14.2955 91.3793 14.5114C91.6899 14.7235 92.0857 14.8295 92.5668 14.8295ZM98.767 16V7.27273H100.409V8.65909H100.5C100.659 8.18939 100.939 7.82008 101.341 7.55114C101.746 7.27841 102.205 7.14205 102.716 7.14205C102.822 7.14205 102.947 7.14583 103.091 7.15341C103.239 7.16098 103.354 7.17045 103.438 7.18182V8.80682C103.369 8.78788 103.248 8.76705 103.074 8.74432C102.9 8.7178 102.725 8.70455 102.551 8.70455C102.15 8.70455 101.792 8.78977 101.477 8.96023C101.167 9.12689 100.92 9.35985 100.739 9.65909C100.557 9.95455 100.466 10.2917 100.466 10.6705V16H98.767ZM107.862 16.1705C107.158 16.1705 106.529 15.9905 105.976 15.6307C105.427 15.267 104.995 14.75 104.68 14.0795C104.37 13.4053 104.214 12.5966 104.214 11.6534C104.214 10.7102 104.372 9.90341 104.686 9.23295C105.004 8.5625 105.44 8.04924 105.993 7.69318C106.546 7.33712 107.173 7.15909 107.874 7.15909C108.415 7.15909 108.851 7.25 109.18 7.43182C109.514 7.60985 109.771 7.81818 109.953 8.05682C110.139 8.29545 110.283 8.50568 110.385 8.6875H110.487V4.36364H112.186V16H110.527V14.642H110.385C110.283 14.8277 110.135 15.0398 109.942 15.2784C109.752 15.517 109.491 15.7254 109.158 15.9034C108.824 16.0814 108.393 16.1705 107.862 16.1705ZM108.237 14.7216C108.726 14.7216 109.139 14.5928 109.476 14.3352C109.817 14.0739 110.074 13.7121 110.249 13.25C110.427 12.7879 110.516 12.25 110.516 11.6364C110.516 11.0303 110.429 10.5 110.254 10.0455C110.08 9.59091 109.824 9.23674 109.487 8.98295C109.15 8.72917 108.733 8.60227 108.237 8.60227C107.726 8.60227 107.3 8.73485 106.959 9C106.618 9.26515 106.36 9.62689 106.186 10.0852C106.016 10.5436 105.93 11.0606 105.93 11.6364C105.93 12.2197 106.018 12.7443 106.192 13.2102C106.366 13.6761 106.624 14.0455 106.964 14.3182C107.309 14.5871 107.733 14.7216 108.237 14.7216Z" fill="#424242"/>
<g clip-path="url(#clip0_1_222)">
<path d="M1.66669 10.17C1.66669 8.26249 1.66669 7.30916 2.10002 6.51916C2.53169 5.72832 3.32252 5.23832 4.90335 4.25666L6.57002 3.22249C8.24085 2.18499 9.07669 1.66666 10 1.66666C10.9234 1.66666 11.7584 2.18499 13.43 3.22249L15.0967 4.25666C16.6775 5.23832 17.4684 5.72832 17.9009 6.51916C18.3334 7.30916 18.3334 8.26249 18.3334 10.1692V11.4375C18.3334 14.6875 18.3334 16.3133 17.3567 17.3233C16.3809 18.3333 14.8092 18.3333 11.6667 18.3333H8.33335C5.19085 18.3333 3.61919 18.3333 2.64335 17.3233C1.66669 16.3133 1.66669 14.6883 1.66669 11.4375V10.17Z" stroke="#424242" stroke-width="1.5"/>
<path d="M12.2227 12.9999C11.8898 12.9999 11.6209 13.2606 11.6209 13.5833C11.6209 13.906 11.8898 14.1667 12.2227 14.1667H15.2316C15.5644 14.1667 15.8333 13.906 15.8333 13.5833V10.6664C15.8333 10.3437 15.5644 10.083 15.2316 10.083C14.8987 10.083 14.6298 10.3437 14.6298 10.6664V12.1741L11.4441 9.08763C11.2091 8.85975 10.8273 8.85975 10.5923 9.08763L8.61205 11.0073L6.02819 8.50426C5.79312 8.27637 5.41137 8.27637 5.1763 8.50426C4.94123 8.73214 4.94123 9.10222 5.1763 9.3301L8.18517 12.247C8.42024 12.4749 8.80199 12.4749 9.03705 12.247L11.0191 10.3255L13.7779 12.9999H12.2227Z" fill="#424242"/>
</g>
<defs>
<clipPath id="clip0_1_222">
<rect width="20" height="20" fill="white"/>
</clipPath>
</defs>
</svg>
