<svg width="146" height="18" viewBox="0 0 146 18" fill="none" xmlns="http://www.w3.org/2000/svg">
<path d="M40.3864 10.1818C40.3864 11.4242 40.1591 12.4924 39.7045 13.3864C39.25 14.2765 38.6269 14.9621 37.8352 15.4432C37.0473 15.9205 36.1515 16.1591 35.1477 16.1591C34.1402 16.1591 33.2405 15.9205 32.4489 15.4432C31.661 14.9621 31.0398 14.2746 30.5852 13.3807C30.1307 12.4867 29.9034 11.4205 29.9034 10.1818C29.9034 8.93939 30.1307 7.87311 30.5852 6.98295C31.0398 6.08901 31.661 5.40341 32.4489 4.92614C33.2405 4.44508 34.1402 4.20455 35.1477 4.20455C36.1515 4.20455 37.0473 4.44508 37.8352 4.92614C38.6269 5.40341 39.25 6.08901 39.7045 6.98295C40.1591 7.87311 40.3864 8.93939 40.3864 10.1818ZM38.6477 10.1818C38.6477 9.23485 38.4943 8.4375 38.1875 7.78977C37.8845 7.13826 37.4678 6.64583 36.9375 6.3125C36.411 5.97538 35.8144 5.80682 35.1477 5.80682C34.4773 5.80682 33.8788 5.97538 33.3523 6.3125C32.8258 6.64583 32.4091 7.13826 32.1023 7.78977C31.7992 8.4375 31.6477 9.23485 31.6477 10.1818C31.6477 11.1288 31.7992 11.928 32.1023 12.5795C32.4091 13.2273 32.8258 13.7197 33.3523 14.0568C33.8788 14.3902 34.4773 14.5568 35.1477 14.5568C35.8144 14.5568 36.411 14.3902 36.9375 14.0568C37.4678 13.7197 37.8845 13.2273 38.1875 12.5795C38.4943 11.928 38.6477 11.1288 38.6477 10.1818ZM49.9048 7.27273L46.7401 16H44.9219L41.7514 7.27273H43.5753L45.7855 13.9886H45.8764L48.081 7.27273H49.9048ZM54.9659 16.1761C54.1061 16.1761 53.3655 15.9924 52.7443 15.625C52.1269 15.2538 51.6496 14.733 51.3125 14.0625C50.9792 13.3883 50.8125 12.5985 50.8125 11.6932C50.8125 10.7992 50.9792 10.0114 51.3125 9.32955C51.6496 8.64773 52.1193 8.11553 52.7216 7.73295C53.3277 7.35038 54.036 7.15909 54.8466 7.15909C55.339 7.15909 55.8163 7.24053 56.2784 7.40341C56.7405 7.56629 57.1553 7.82197 57.5227 8.17045C57.8902 8.51894 58.1799 8.97159 58.392 9.52841C58.6042 10.0814 58.7102 10.7538 58.7102 11.5455V12.1477H51.7727V10.875H57.0455C57.0455 10.428 56.9545 10.0322 56.7727 9.6875C56.5909 9.33902 56.3352 9.06439 56.0057 8.86364C55.6799 8.66288 55.2973 8.5625 54.858 8.5625C54.3807 8.5625 53.964 8.67992 53.608 8.91477C53.2557 9.14583 52.983 9.44886 52.7898 9.82386C52.6004 10.1951 52.5057 10.5985 52.5057 11.0341V12.0284C52.5057 12.6117 52.608 13.108 52.8125 13.517C53.0208 13.9261 53.3106 14.2386 53.6818 14.4545C54.053 14.6667 54.4867 14.7727 54.983 14.7727C55.3049 14.7727 55.5985 14.7273 55.8636 14.6364C56.1288 14.5417 56.358 14.4015 56.5511 14.2159C56.7443 14.0303 56.892 13.8011 56.9943 13.5284L58.6023 13.8182C58.4735 14.2917 58.2424 14.7064 57.9091 15.0625C57.5795 15.4148 57.1648 15.6894 56.6648 15.8864C56.1686 16.0795 55.6023 16.1761 54.9659 16.1761ZM60.5952 16V7.27273H62.2372V8.65909H62.3281C62.4872 8.18939 62.7675 7.82008 63.169 7.55114C63.5743 7.27841 64.0327 7.14205 64.544 7.14205C64.6501 7.14205 64.7751 7.14583 64.919 7.15341C65.0668 7.16098 65.1823 7.17045 65.2656 7.18182V8.80682C65.1974 8.78788 65.0762 8.76705 64.902 8.74432C64.7277 8.7178 64.5535 8.70455 64.3793 8.70455C63.9777 8.70455 63.6198 8.78977 63.3054 8.96023C62.9948 9.12689 62.7486 9.35985 62.5668 9.65909C62.3849 9.95455 62.294 10.2917 62.294 10.6705V16H60.5952ZM74.4673 7.27273L71.3026 16H69.4844L66.3139 7.27273H68.1378L70.348 13.9886H70.4389L72.6435 7.27273H74.4673ZM76.0639 16V7.27273H77.7628V16H76.0639ZM76.9219 5.92614C76.6264 5.92614 76.3726 5.82765 76.1605 5.63068C75.9522 5.42992 75.848 5.19129 75.848 4.91477C75.848 4.63447 75.9522 4.39583 76.1605 4.19886C76.3726 3.99811 76.6264 3.89773 76.9219 3.89773C77.2173 3.89773 77.4692 3.99811 77.6776 4.19886C77.8897 4.39583 77.9957 4.63447 77.9957 4.91477C77.9957 5.19129 77.8897 5.42992 77.6776 5.63068C77.4692 5.82765 77.2173 5.92614 76.9219 5.92614ZM83.8097 16.1761C82.9498 16.1761 82.2093 15.9924 81.5881 15.625C80.9706 15.2538 80.4934 14.733 80.1562 14.0625C79.8229 13.3883 79.6562 12.5985 79.6562 11.6932C79.6562 10.7992 79.8229 10.0114 80.1562 9.32955C80.4934 8.64773 80.9631 8.11553 81.5653 7.73295C82.1714 7.35038 82.8797 7.15909 83.6903 7.15909C84.1828 7.15909 84.66 7.24053 85.1222 7.40341C85.5843 7.56629 85.9991 7.82197 86.3665 8.17045C86.7339 8.51894 87.0237 8.97159 87.2358 9.52841C87.4479 10.0814 87.554 10.7538 87.554 11.5455V12.1477H80.6165V10.875H85.8892C85.8892 10.428 85.7983 10.0322 85.6165 9.6875C85.4347 9.33902 85.179 9.06439 84.8494 8.86364C84.5237 8.66288 84.1411 8.5625 83.7017 8.5625C83.2244 8.5625 82.8078 8.67992 82.4517 8.91477C82.0994 9.14583 81.8267 9.44886 81.6335 9.82386C81.4441 10.1951 81.3494 10.5985 81.3494 11.0341V12.0284C81.3494 12.6117 81.4517 13.108 81.6562 13.517C81.8646 13.9261 82.1544 14.2386 82.5256 14.4545C82.8968 14.6667 83.3305 14.7727 83.8267 14.7727C84.1487 14.7727 84.4422 14.7273 84.7074 14.6364C84.9725 14.5417 85.2017 14.4015 85.3949 14.2159C85.5881 14.0303 85.7358 13.8011 85.8381 13.5284L87.446 13.8182C87.3172 14.2917 87.0862 14.7064 86.7528 15.0625C86.4233 15.4148 86.0085 15.6894 85.5085 15.8864C85.0123 16.0795 84.446 16.1761 83.8097 16.1761ZM91.3153 16L88.7472 7.27273H90.5028L92.2131 13.6818H92.2983L94.0142 7.27273H95.7699L97.4744 13.6534H97.5597L99.2585 7.27273H101.014L98.4517 16H96.7188L94.946 9.69886H94.8153L93.0426 16H91.3153Z" fill="#424242"/>
<path d="M15.6667 1H2.33333C1.97971 1 1.64057 1.14048 1.39052 1.39052C1.14048 1.64057 1 1.97971 1 2.33333V15.6667C1 16.0203 1.14048 16.3594 1.39052 16.6095C1.64057 16.8595 1.97971 17 2.33333 17H15.6667C16.0203 17 16.3594 16.8595 16.6095 16.6095C16.8595 16.3594 17 16.0203 17 15.6667V2.33333C17 1.97971 16.8595 1.64057 16.6095 1.39052C16.3594 1.14048 16.0203 1 15.6667 1Z" stroke="#424242" stroke-width="2" stroke-linejoin="round"/>
<path d="M4.30664 11.5933L6.82086 9.07912L8.77109 11.0245L13.4444 6.33334" stroke="#424242" stroke-width="2" stroke-linecap="round" stroke-linejoin="round"/>
<path d="M9.88892 6.33334H13.4445V9.8889" stroke="#424242" stroke-width="2" stroke-linecap="round" stroke-linejoin="round"/>
</svg>
